<mxfile host="Electron" modified="2023-05-30T22:34:24.659Z" agent="Mozilla/5.0 (Windows NT 10.0; Win64; x64) AppleWebKit/537.36 (KHTML, like Gecko) draw.io/21.1.2 Chrome/106.0.5249.199 Electron/21.4.3 Safari/537.36" version="21.1.2" etag="2SUE46FlwwLXFeDsJdJM" type="device">
  <diagram id="9EicJ1S_JwPo7eVfruOO" name="Page-1">
    <mxGraphModel dx="1050" dy="629" grid="1" gridSize="10" guides="1" tooltips="1" connect="1" arrows="1" fold="1" page="1" pageScale="1" pageWidth="850" pageHeight="1100" math="0" shadow="0">
      <root>
        <mxCell id="0" />
        <mxCell id="1" parent="0" />
        <mxCell id="6oObW66iGL27pCdOQ0Lv-2" value="server base de données" style="verticalAlign=top;align=left;spacingTop=8;spacingLeft=2;spacingRight=12;shape=cube;size=10;direction=south;fontStyle=4;html=1;whiteSpace=wrap;" vertex="1" parent="1">
          <mxGeometry x="620" y="100" width="170" height="240" as="geometry" />
        </mxCell>
        <mxCell id="6oObW66iGL27pCdOQ0Lv-5" value="base de données SQL&amp;nbsp;" style="shape=module;align=left;spacingLeft=20;align=center;verticalAlign=top;whiteSpace=wrap;html=1;" vertex="1" parent="1">
          <mxGeometry x="645" y="160" width="120" height="50" as="geometry" />
        </mxCell>
        <mxCell id="6oObW66iGL27pCdOQ0Lv-6" value="&lt;p align=&quot;center&quot; class=&quot;MsoNormal&quot;&gt;SIMWebPAck&lt;b&gt;&lt;/b&gt;&lt;/p&gt;" style="shape=module;align=left;spacingLeft=20;align=center;verticalAlign=top;whiteSpace=wrap;html=1;" vertex="1" parent="1">
          <mxGeometry x="645" y="260" width="120" height="50" as="geometry" />
        </mxCell>
        <mxCell id="6oObW66iGL27pCdOQ0Lv-7" value="server web" style="verticalAlign=top;align=left;spacingTop=8;spacingLeft=2;spacingRight=12;shape=cube;size=10;direction=south;fontStyle=4;html=1;whiteSpace=wrap;" vertex="1" parent="1">
          <mxGeometry x="60" y="100" width="170" height="240" as="geometry" />
        </mxCell>
        <mxCell id="6oObW66iGL27pCdOQ0Lv-8" value="elise web" style="shape=module;align=left;spacingLeft=20;align=center;verticalAlign=top;whiteSpace=wrap;html=1;" vertex="1" parent="1">
          <mxGeometry x="73" y="160" width="130" height="50" as="geometry" />
        </mxCell>
        <mxCell id="6oObW66iGL27pCdOQ0Lv-9" value="elise cloud service" style="shape=module;align=left;spacingLeft=20;align=center;verticalAlign=top;whiteSpace=wrap;html=1;" vertex="1" parent="1">
          <mxGeometry x="73" y="250" width="130" height="50" as="geometry" />
        </mxCell>
        <mxCell id="6oObW66iGL27pCdOQ0Lv-10" value="client" style="verticalAlign=top;align=left;spacingTop=8;spacingLeft=2;spacingRight=12;shape=cube;size=10;direction=south;fontStyle=4;html=1;whiteSpace=wrap;" vertex="1" parent="1">
          <mxGeometry x="390" y="380" width="170" height="180" as="geometry" />
        </mxCell>
        <mxCell id="6oObW66iGL27pCdOQ0Lv-28" style="edgeStyle=orthogonalEdgeStyle;rounded=0;orthogonalLoop=1;jettySize=auto;html=1;entryX=0.5;entryY=1;entryDx=0;entryDy=0;" edge="1" parent="1" source="6oObW66iGL27pCdOQ0Lv-11" target="6oObW66iGL27pCdOQ0Lv-23">
          <mxGeometry relative="1" as="geometry">
            <Array as="points">
              <mxPoint x="370" y="455" />
              <mxPoint x="370" y="257" />
            </Array>
          </mxGeometry>
        </mxCell>
        <mxCell id="6oObW66iGL27pCdOQ0Lv-11" value="client mobile" style="shape=module;align=left;spacingLeft=20;align=center;verticalAlign=top;whiteSpace=wrap;html=1;" vertex="1" parent="1">
          <mxGeometry x="420" y="430" width="120" height="50" as="geometry" />
        </mxCell>
        <mxCell id="6oObW66iGL27pCdOQ0Lv-22" value="server d&#39;application" style="verticalAlign=top;align=left;spacingTop=8;spacingLeft=2;spacingRight=12;shape=cube;size=10;direction=south;fontStyle=4;html=1;whiteSpace=wrap;" vertex="1" parent="1">
          <mxGeometry x="280" y="155" width="170" height="130" as="geometry" />
        </mxCell>
        <mxCell id="6oObW66iGL27pCdOQ0Lv-24" style="edgeStyle=orthogonalEdgeStyle;rounded=0;orthogonalLoop=1;jettySize=auto;html=1;entryX=1;entryY=0.5;entryDx=0;entryDy=0;endArrow=none;endFill=0;" edge="1" parent="1" source="6oObW66iGL27pCdOQ0Lv-23" target="6oObW66iGL27pCdOQ0Lv-8">
          <mxGeometry relative="1" as="geometry">
            <Array as="points">
              <mxPoint x="257" y="220" />
              <mxPoint x="257" y="185" />
            </Array>
          </mxGeometry>
        </mxCell>
        <mxCell id="6oObW66iGL27pCdOQ0Lv-25" style="edgeStyle=orthogonalEdgeStyle;rounded=0;orthogonalLoop=1;jettySize=auto;html=1;entryX=1;entryY=0.5;entryDx=0;entryDy=0;endArrow=none;endFill=0;" edge="1" parent="1" source="6oObW66iGL27pCdOQ0Lv-23" target="6oObW66iGL27pCdOQ0Lv-9">
          <mxGeometry relative="1" as="geometry">
            <Array as="points">
              <mxPoint x="257" y="240" />
              <mxPoint x="257" y="275" />
            </Array>
          </mxGeometry>
        </mxCell>
        <mxCell id="6oObW66iGL27pCdOQ0Lv-30" style="edgeStyle=orthogonalEdgeStyle;rounded=0;orthogonalLoop=1;jettySize=auto;html=1;entryX=0;entryY=0;entryDx=0;entryDy=35;entryPerimeter=0;endArrow=none;endFill=0;" edge="1" parent="1" source="6oObW66iGL27pCdOQ0Lv-23" target="6oObW66iGL27pCdOQ0Lv-6">
          <mxGeometry relative="1" as="geometry">
            <Array as="points">
              <mxPoint x="538" y="240" />
              <mxPoint x="538" y="295" />
            </Array>
          </mxGeometry>
        </mxCell>
        <mxCell id="6oObW66iGL27pCdOQ0Lv-31" style="edgeStyle=orthogonalEdgeStyle;rounded=0;orthogonalLoop=1;jettySize=auto;html=1;entryX=0;entryY=0;entryDx=0;entryDy=15;entryPerimeter=0;endArrow=none;endFill=0;" edge="1" parent="1" source="6oObW66iGL27pCdOQ0Lv-23" target="6oObW66iGL27pCdOQ0Lv-5">
          <mxGeometry relative="1" as="geometry">
            <Array as="points">
              <mxPoint x="538" y="220" />
              <mxPoint x="538" y="175" />
            </Array>
          </mxGeometry>
        </mxCell>
        <mxCell id="6oObW66iGL27pCdOQ0Lv-23" value="Elise" style="shape=module;align=left;spacingLeft=20;align=center;verticalAlign=top;whiteSpace=wrap;html=1;" vertex="1" parent="1">
          <mxGeometry x="311" y="207" width="120" height="50" as="geometry" />
        </mxCell>
        <mxCell id="6oObW66iGL27pCdOQ0Lv-26" value="&lt;span style=&quot;font-weight: normal;&quot;&gt;&lt;font style=&quot;font-size: 10px;&quot;&gt;SOAP&lt;/font&gt;&lt;/span&gt;" style="text;align=center;fontStyle=1;verticalAlign=middle;spacingLeft=3;spacingRight=3;strokeColor=none;rotatable=0;points=[[0,0.5],[1,0.5]];portConstraint=eastwest;html=1;" vertex="1" parent="1">
          <mxGeometry x="206" y="164" width="80" height="26" as="geometry" />
        </mxCell>
        <mxCell id="6oObW66iGL27pCdOQ0Lv-27" value="&lt;span style=&quot;font-weight: normal;&quot;&gt;&lt;font style=&quot;font-size: 10px;&quot;&gt;REST&lt;/font&gt;&lt;/span&gt;" style="text;align=center;fontStyle=1;verticalAlign=middle;spacingLeft=3;spacingRight=3;strokeColor=none;rotatable=0;points=[[0,0.5],[1,0.5]];portConstraint=eastwest;html=1;" vertex="1" parent="1">
          <mxGeometry x="206" y="272" width="80" height="26" as="geometry" />
        </mxCell>
        <mxCell id="6oObW66iGL27pCdOQ0Lv-29" value="&lt;span style=&quot;font-weight: normal;&quot;&gt;&lt;font style=&quot;font-size: 10px;&quot;&gt;REST/ SOAP&lt;/font&gt;&lt;/span&gt;" style="text;align=center;fontStyle=1;verticalAlign=middle;spacingLeft=3;spacingRight=3;strokeColor=none;rotatable=0;points=[[0,0.5],[1,0.5]];portConstraint=eastwest;html=1;" vertex="1" parent="1">
          <mxGeometry x="370" y="316" width="80" height="26" as="geometry" />
        </mxCell>
        <mxCell id="6oObW66iGL27pCdOQ0Lv-32" value="&lt;span style=&quot;font-weight: normal;&quot;&gt;&lt;font style=&quot;font-size: 10px;&quot;&gt;SOAP&lt;/font&gt;&lt;/span&gt;" style="text;align=center;fontStyle=1;verticalAlign=middle;spacingLeft=3;spacingRight=3;strokeColor=none;rotatable=0;points=[[0,0.5],[1,0.5]];portConstraint=eastwest;html=1;" vertex="1" parent="1">
          <mxGeometry x="540" y="290" width="80" height="26" as="geometry" />
        </mxCell>
        <mxCell id="6oObW66iGL27pCdOQ0Lv-33" value="&lt;span style=&quot;font-weight: normal;&quot;&gt;&lt;font style=&quot;font-size: 10px;&quot;&gt;TCP/IP&lt;/font&gt;&lt;/span&gt;" style="text;align=center;fontStyle=1;verticalAlign=middle;spacingLeft=3;spacingRight=3;strokeColor=none;rotatable=0;points=[[0,0.5],[1,0.5]];portConstraint=eastwest;html=1;" vertex="1" parent="1">
          <mxGeometry x="540" y="150" width="80" height="26" as="geometry" />
        </mxCell>
        <mxCell id="6oObW66iGL27pCdOQ0Lv-39" style="edgeStyle=orthogonalEdgeStyle;rounded=0;orthogonalLoop=1;jettySize=auto;html=1;entryX=0.992;entryY=0.645;entryDx=0;entryDy=0;entryPerimeter=0;endArrow=none;endFill=0;" edge="1" parent="1" source="6oObW66iGL27pCdOQ0Lv-38" target="6oObW66iGL27pCdOQ0Lv-22">
          <mxGeometry relative="1" as="geometry">
            <Array as="points">
              <mxPoint x="340" y="515" />
            </Array>
          </mxGeometry>
        </mxCell>
        <mxCell id="6oObW66iGL27pCdOQ0Lv-38" value="client web" style="shape=module;align=left;spacingLeft=20;align=center;verticalAlign=top;whiteSpace=wrap;html=1;" vertex="1" parent="1">
          <mxGeometry x="420" y="490" width="120" height="50" as="geometry" />
        </mxCell>
        <mxCell id="6oObW66iGL27pCdOQ0Lv-41" value="&lt;span style=&quot;color: rgb(0, 0, 0); font-family: Helvetica; font-size: 10px; font-style: normal; font-variant-ligatures: normal; font-variant-caps: normal; font-weight: 400; letter-spacing: normal; orphans: 2; text-align: center; text-indent: 0px; text-transform: none; widows: 2; word-spacing: 0px; -webkit-text-stroke-width: 0px; background-color: rgb(251, 251, 251); text-decoration-thickness: initial; text-decoration-style: initial; text-decoration-color: initial; float: none; display: inline !important;&quot;&gt;REST&lt;/span&gt;" style="text;whiteSpace=wrap;html=1;" vertex="1" parent="1">
          <mxGeometry x="300" y="370" width="30" height="40" as="geometry" />
        </mxCell>
      </root>
    </mxGraphModel>
  </diagram>
</mxfile>
